<svg width="11" height="11" viewBox="0 0 11 11" fill="none" xmlns="http://www.w3.org/2000/svg">
<path d="M5.30466 0C5.24941 0 5.24941 0 5.19415 0C5.19415 0 5.19415 0 5.13889 0C5.02838 0 4.97312 0 4.86261 0L4.97312 1.1C5.19415 1.1 5.47043 1.1 5.69146 1.1C7.90174 1.265 9.72521 3.025 9.83573 5.28C9.94624 7.7 8.06751 9.79 5.6362 9.9C5.6362 9.9 5.58095 9.9 5.52569 9.9C5.35992 9.9 5.13889 9.9 4.97312 9.9L4.91786 11C5.13889 11 5.35992 11 5.6362 11C5.69146 11 5.80198 11 5.85723 11C8.8411 10.78 11.1066 8.25 10.9961 5.28C10.8856 2.475 8.62008 0.275 5.85723 0.0549999C5.74672 0.0549999 5.69146 0.0549999 5.58095 0.0549999C5.47043 -5.32717e-08 5.41518 0 5.30466 0ZM3.37067 0.385C3.09439 0.55 2.8181 0.66 2.54182 0.825L3.14964 1.76C3.31541 1.65 3.53644 1.54 3.75747 1.43L3.37067 0.385ZM1.32617 1.87C1.10514 2.09 0.939367 2.365 0.773597 2.585L1.71296 3.135C1.82348 2.97 1.98925 2.805 2.15502 2.585L1.32617 1.87ZM7.34917 3.52L4.80735 6.38L3.31541 5.225L2.70759 6.16L5.02838 7.92L8.23328 4.29L7.34917 3.52ZM0.165771 3.85C0.055257 4.125 0 4.455 0 4.73L1.10514 4.895C1.1604 4.675 1.1604 4.4 1.27091 4.18L0.165771 3.85ZM1.10514 6.05L0 6.16C0 6.215 0 6.27 0 6.325C0.0552569 6.545 0.110514 6.82 0.165771 7.04L1.21565 6.71C1.1604 6.545 1.10514 6.325 1.10514 6.105V6.05ZM1.71296 7.81L0.773597 8.415C0.939367 8.69 1.10514 8.91 1.32617 9.13L2.15502 8.415C1.98925 8.195 1.82348 8.03 1.71296 7.81ZM3.14964 9.24L2.54182 10.175C2.8181 10.34 3.09439 10.45 3.37067 10.615L3.81273 9.625C3.53644 9.46 3.31541 9.35 3.14964 9.24Z" fill="#0078d4"/>
</svg>
