<svg width="20" height="20" viewBox="0 0 20 20" fill="none" xmlns="http://www.w3.org/2000/svg">
<path d="M10 1.875C5.5125 1.875 1.875 5.5125 1.875 10C1.875 14.4875 5.5125 18.125 10 18.125C14.4875 18.125 18.125 14.4875 18.125 10C18.125 5.5125 14.4875 1.875 10 1.875ZM11.2744 12.9894C10.6612 13.91 10.0375 14.6194 8.98812 14.6194C8.27187 14.5025 7.9775 13.9894 8.1325 13.4662L9.4825 8.995C9.51562 8.88563 9.46063 8.76875 9.36063 8.73312C9.26125 8.69812 9.06625 8.8275 8.8975 9.0125L8.08125 9.99438C8.05938 9.82938 8.07875 9.55687 8.07875 9.44687C8.69187 8.52625 9.69937 7.8 10.3825 7.8C11.0319 7.86625 11.3394 8.38562 11.2262 8.95625L9.86687 13.4494C9.84875 13.5506 9.9025 13.6538 9.99438 13.6863C10.0944 13.7213 10.3044 13.5919 10.4737 13.4069L11.2894 12.4256C11.3112 12.5906 11.2744 12.8794 11.2744 12.9894ZM11.0925 7.14938C10.5762 7.14938 10.1575 6.77313 10.1575 6.21938C10.1575 5.66563 10.5762 5.29 11.0925 5.29C11.6087 5.29 12.0275 5.66625 12.0275 6.21938C12.0275 6.77375 11.6087 7.14938 11.0925 7.14938Z" fill="#9E9E9E"/>
</svg>
