<svg width="40" height="40" viewBox="0 0 40 40" fill="none" xmlns="http://www.w3.org/2000/svg">
<path d="M5.85944 4.6499C6.21944 4.6499 6.56944 4.7599 6.86944 4.9799C7.57944 5.4999 7.69944 6.4599 7.13944 7.1199C6.81944 7.4999 6.33944 7.6999 5.84944 7.6999C5.48944 7.6999 5.13944 7.5899 4.83944 7.3699C4.12944 6.8499 4.00944 5.8899 4.56944 5.2299C4.88944 4.8499 5.36944 4.6499 5.85944 4.6499ZM5.85944 2.6499C4.75944 2.6499 3.73944 3.1199 3.04944 3.9399C2.42944 4.6699 2.13944 5.6299 2.24944 6.5799C2.35944 7.5299 2.87944 8.4099 3.66944 8.9899C4.30944 9.4599 5.06944 9.6999 5.86944 9.6999C6.96944 9.6999 7.98944 9.2299 8.67944 8.4099C9.29944 7.6799 9.58943 6.7199 9.47943 5.7699C9.36943 4.8199 8.84944 3.9399 8.05944 3.3599C7.41944 2.8899 6.65944 2.6499 5.85944 2.6499Z" fill="#0274D1"/>
<path d="M34.5801 33.5999C34.9401 33.5999 35.2901 33.7099 35.5901 33.9299C36.3001 34.4499 36.4201 35.4099 35.8601 36.0699C35.5401 36.4499 35.0601 36.6499 34.5701 36.6499C34.2101 36.6499 33.8601 36.5399 33.5601 36.3199C32.8501 35.7999 32.7301 34.8399 33.2901 34.1799C33.6101 33.7999 34.0901 33.5999 34.5801 33.5999ZM34.5801 31.5999C33.4801 31.5999 32.4601 32.0699 31.7701 32.8899C31.1501 33.6199 30.8601 34.5899 30.9701 35.5299C31.0801 36.4799 31.6001 37.3599 32.3901 37.9399C33.0301 38.4099 33.7901 38.6499 34.5901 38.6499C35.6901 38.6499 36.7101 38.1799 37.4001 37.3599C38.0201 36.6299 38.3101 35.6699 38.2001 34.7199C38.0901 33.7699 37.5701 32.8899 36.7801 32.3099C36.1401 31.8399 35.3801 31.5999 34.5801 31.5999Z" fill="#0274D1"/>
<path d="M7.38867 7.69995L33.3487 33.91" stroke="#0274D1" stroke-width="2" stroke-miterlimit="10"/>
<path d="M5.85967 33.5999C6.33967 33.5999 6.82967 33.7999 7.14967 34.1799C7.70967 34.8399 7.58967 35.7999 6.87967 36.3199C6.57967 36.5399 6.21967 36.6499 5.86967 36.6499C5.38967 36.6499 4.89967 36.4499 4.57967 36.0699C4.01967 35.4099 4.13967 34.4499 4.84967 33.9299C5.14967 33.7099 5.50967 33.5999 5.85967 33.5999ZM5.85967 31.5999C5.05967 31.5999 4.29967 31.8499 3.65967 32.3099C2.86967 32.8899 2.34967 33.7699 2.23967 34.7199C2.12967 35.6599 2.41967 36.6199 3.03967 37.3599C3.72967 38.1799 4.75967 38.6499 5.84967 38.6499C6.64967 38.6499 7.40967 38.3999 8.04967 37.9399C8.83967 37.3599 9.35967 36.4799 9.46967 35.5299C9.57967 34.5899 9.28967 33.6299 8.66967 32.8899C7.97967 32.0699 6.94967 31.5999 5.85967 31.5999Z" fill="#0274D1"/>
<path d="M34.5804 4.6499C35.0604 4.6499 35.5504 4.8499 35.8704 5.2299C36.4304 5.8899 36.3104 6.8499 35.6004 7.3699C35.3004 7.5899 34.9404 7.6999 34.5904 7.6999C34.1104 7.6999 33.6204 7.4999 33.3004 7.1199C32.7404 6.4599 32.8604 5.4999 33.5704 4.9799C33.8704 4.7599 34.2304 4.6499 34.5804 4.6499ZM34.5804 2.6499C33.7804 2.6499 33.0204 2.8999 32.3804 3.3599C31.5904 3.9399 31.0704 4.8199 30.9604 5.7699C30.8504 6.7099 31.1404 7.6699 31.7604 8.4099C32.4504 9.2299 33.4804 9.6999 34.5704 9.6999C35.3704 9.6999 36.1304 9.4499 36.7704 8.9899C37.5604 8.4099 38.0804 7.5299 38.1904 6.5799C38.3004 5.6399 38.0104 4.6799 37.3904 3.9399C36.7004 3.1199 35.6704 2.6499 34.5804 2.6499Z" fill="#0274D1"/>
<path d="M7.39062 33.5999L33.3506 7.3999" stroke="#0274D1" stroke-width="2" stroke-miterlimit="10"/>
<path d="M20.2188 33.6499C13.0487 33.6499 7.21875 27.8199 7.21875 20.6499C7.21875 13.4799 13.0487 7.6499 20.2188 7.6499C27.3888 7.6499 33.2188 13.4799 33.2188 20.6499C33.2188 27.8199 27.3888 33.6499 20.2188 33.6499Z" fill="#C9FFFE"/>
<path d="M20.2188 8.6499C26.8488 8.6499 32.2188 14.0199 32.2188 20.6499C32.2188 27.2799 26.8488 32.6499 20.2188 32.6499C13.5887 32.6499 8.21875 27.2799 8.21875 20.6499C8.21875 14.0199 13.5887 8.6499 20.2188 8.6499ZM20.2188 6.6499C12.4988 6.6499 6.21875 12.9299 6.21875 20.6499C6.21875 28.3699 12.4988 34.6499 20.2188 34.6499C27.9387 34.6499 34.2188 28.3699 34.2188 20.6499C34.2188 12.9299 27.9387 6.6499 20.2188 6.6499Z" fill="#0274D1"/>
<path d="M19 15.6699V26.6699C19 27.2222 19.4477 27.6699 20 27.6699C20.5523 27.6699 21 27.2222 21 26.6699V15.6699C21 15.1176 20.5523 14.6699 20 14.6699C19.4477 14.6699 19 15.1176 19 15.6699Z" fill="#0274D1"/>
<path d="M24 18.1699V24.1699C24 24.7222 24.4477 25.1699 25 25.1699C25.5523 25.1699 26 24.7222 26 24.1699V18.1699C26 17.6176 25.5523 17.1699 25 17.1699C24.4477 17.1699 24 17.6176 24 18.1699Z" fill="#0274D1"/>
<path d="M14 18.1699V24.1699C14 24.7222 14.4477 25.1699 15 25.1699C15.5523 25.1699 16 24.7222 16 24.1699V18.1699C16 17.6176 15.5523 17.1699 15 17.1699C14.4477 17.1699 14 17.6176 14 18.1699Z" fill="#0274D1"/>
</svg>
