<svg width="40" height="40" viewBox="0 0 40 40" fill="none" xmlns="http://www.w3.org/2000/svg">
<path d="M20.3402 33.8499C27.8513 33.8499 33.9402 27.761 33.9402 20.2499C33.9402 12.7388 27.8513 6.6499 20.3402 6.6499C12.8292 6.6499 6.74023 12.7388 6.74023 20.2499C6.74023 27.761 12.8292 33.8499 20.3402 33.8499Z" fill="#C9FFFE"/>
<path d="M26.3595 27.97H25.2595V26.01C25.2595 24.05 24.1795 22.24 22.2295 20.93C21.9795 20.76 21.8295 20.41 21.8295 20C21.8295 19.59 21.9795 19.23 22.2295 19.07C24.1895 17.76 25.2595 15.95 25.2595 13.99V12.03H26.3595C26.6995 12.03 26.9795 11.75 26.9795 11.41C26.9795 11.07 26.6995 10.79 26.3595 10.79H13.6395C13.2995 10.79 13.0195 11.07 13.0195 11.41C13.0195 11.75 13.2995 12.03 13.6395 12.03H14.7395V13.99C14.7395 15.95 15.8195 17.76 17.7695 19.07C18.0195 19.24 18.1695 19.59 18.1695 20C18.1695 20.41 18.0195 20.77 17.7695 20.93C15.8095 22.24 14.7395 24.05 14.7395 26.01V27.97H13.6395C13.2995 27.97 13.0195 28.25 13.0195 28.59C13.0195 28.93 13.2995 29.21 13.6395 29.21H26.3595C26.6995 29.21 26.9795 28.93 26.9795 28.59C26.9795 28.25 26.6995 27.97 26.3595 27.97ZM19.3795 17.63C19.3795 17.29 19.6595 17.01 19.9995 17.01C20.3395 17.01 20.6195 17.29 20.6195 17.63V18.73C20.6195 19.07 20.3395 19.35 19.9995 19.35C19.6595 19.35 19.3795 19.07 19.3795 18.73V17.63ZM19.5595 21.58C19.6795 21.46 19.8395 21.4 19.9995 21.4C20.1595 21.4 20.3195 21.47 20.4395 21.58C20.5595 21.7 20.6195 21.86 20.6195 22.02C20.6195 22.18 20.5495 22.34 20.4395 22.46C20.3195 22.58 20.1595 22.64 19.9995 22.64C19.8395 22.64 19.6795 22.57 19.5595 22.46C19.4395 22.34 19.3795 22.18 19.3795 22.02C19.3795 21.86 19.4495 21.7 19.5595 21.58ZM16.1795 27.98C16.6895 26.06 19.2895 23.98 19.6195 23.72C19.8395 23.54 20.1595 23.54 20.3795 23.72C20.7095 23.97 23.3095 26.06 23.8195 27.98H16.1795Z" fill="#0274D1"/>
<path d="M22.2202 3.7C22.2602 3.1 21.8002 2.58 21.1902 2.54C20.8002 2.51 20.4002 2.5 20.0002 2.5C10.2002 2.51 2.26023 10.34 2.24023 20C2.25023 29.66 10.1902 37.49 20.0002 37.5C20.4002 37.5 20.7902 37.49 21.1902 37.46C21.8002 37.42 22.2602 36.9 22.2202 36.3C22.1702 35.7 21.6502 35.25 21.0402 35.28C20.7002 35.3 20.3502 35.31 20.0102 35.31C11.4302 35.31 4.48023 28.45 4.47023 20C4.47023 11.55 11.4302 4.7 20.0102 4.69C20.3602 4.69 20.7002 4.69 21.0402 4.73H21.1202C21.7002 4.73 22.1902 4.28 22.2302 3.71L22.2202 3.7ZM26.9402 33.71C26.3302 34.01 25.7102 34.27 25.0702 34.48C24.4902 34.68 24.1802 35.3 24.3802 35.87C24.5302 36.31 24.9602 36.61 25.4302 36.61C25.5502 36.61 25.6802 36.59 25.7902 36.55C26.5202 36.3 27.2302 36.01 27.9302 35.68C28.4802 35.41 28.7002 34.75 28.4302 34.21C28.1602 33.67 27.5002 33.44 26.9502 33.71H26.9402ZM31.6802 9.9C31.8902 10.14 32.1902 10.27 32.5102 10.27C32.7802 10.27 33.0402 10.17 33.2402 10C33.7002 9.6 33.7502 8.91 33.3402 8.46C32.8302 7.89 32.2802 7.35 31.7002 6.84C31.2402 6.45 30.5502 6.5 30.1502 6.94C29.7502 7.39 29.8002 8.07 30.2502 8.47C30.7602 8.91 31.2302 9.39 31.6702 9.89L31.6802 9.9ZM25.0102 5.5C25.6502 5.71 26.2802 5.97 26.8902 6.27C27.0402 6.34 27.2102 6.38 27.3802 6.38C27.8002 6.38 28.1902 6.14 28.3702 5.77C28.6402 5.23 28.4202 4.57 27.8702 4.3C27.1802 3.96 26.4602 3.67 25.7302 3.42C25.1502 3.22 24.5202 3.53 24.3202 4.1C24.1202 4.67 24.4302 5.29 25.0102 5.49V5.5ZM36.1402 24.2C35.5602 24.01 34.9302 24.32 34.7402 24.89C34.5202 25.52 34.2702 26.14 33.9702 26.74C33.7002 27.28 33.9302 27.94 34.4802 28.2C34.6302 28.27 34.8002 28.31 34.9702 28.31C35.3902 28.31 35.7802 28.07 35.9702 27.7C36.3102 27.01 36.6102 26.31 36.8602 25.58C37.0502 25.01 36.7402 24.39 36.1602 24.2H36.1402ZM31.7202 30.06C31.2802 30.56 30.8002 31.04 30.2902 31.48C29.8302 31.88 29.7902 32.57 30.2002 33.02C30.4102 33.25 30.7102 33.39 31.0302 33.39C31.3002 33.39 31.5602 33.29 31.7602 33.11C32.3402 32.61 32.8802 32.07 33.3902 31.49C33.7902 31.04 33.7502 30.34 33.2802 29.95C32.8202 29.55 32.1202 29.6 31.7102 30.06H31.7202ZM37.7102 18.83C37.6702 18.23 37.1402 17.78 36.5302 17.81C35.9202 17.85 35.4602 18.37 35.5002 18.97C35.5202 19.3 35.5402 19.65 35.5402 19.99C35.5402 20.33 35.5402 20.65 35.5102 20.96C35.4702 21.56 35.9302 22.08 36.5402 22.12H36.6102C37.2002 22.12 37.6802 21.67 37.7202 21.1C37.7402 20.73 37.7502 20.36 37.7502 19.99C37.7502 19.62 37.7402 19.2 37.7102 18.81V18.83ZM34.7002 15.07C34.8502 15.51 35.2802 15.81 35.7502 15.81C35.8702 15.81 35.9902 15.79 36.1102 15.75C36.6902 15.56 37.0002 14.93 36.8002 14.36C36.5502 13.64 36.2502 12.93 35.9102 12.25C35.6402 11.71 34.9702 11.49 34.4202 11.76C33.8702 12.03 33.6502 12.68 33.9202 13.22C34.2202 13.82 34.4802 14.43 34.7002 15.06V15.07Z" fill="#0274D1"/>
</svg>
