<svg width="40" height="40" viewBox="0 0 40 40" fill="none" xmlns="http://www.w3.org/2000/svg">
<path d="M5.64069 4C6.00069 4 6.35069 4.11 6.65069 4.33C7.36069 4.85 7.48069 5.81 6.92069 6.47C6.60069 6.85 6.12069 7.05 5.63069 7.05C5.27069 7.05 4.92069 6.94 4.62069 6.72C3.91069 6.2 3.79069 5.24 4.35069 4.58C4.67069 4.2 5.15069 4 5.64069 4ZM5.64069 2C4.54069 2 3.52069 2.47 2.83069 3.29C2.21069 4.02 1.92069 4.98 2.03069 5.93C2.14069 6.88 2.66069 7.76 3.45069 8.34C4.09069 8.81 4.85069 9.05 5.65069 9.05C6.75069 9.05 7.77069 8.58 8.46069 7.76C9.08069 7.03 9.37069 6.07 9.26069 5.12C9.15069 4.17 8.63069 3.29 7.84069 2.71C7.20069 2.24 6.44069 2 5.64069 2Z" fill="#0274D1"/>
<path d="M34.3614 32.95C34.7214 32.95 35.0714 33.0599 35.3714 33.2799C36.0814 33.7999 36.2014 34.7599 35.6414 35.4199C35.3214 35.7999 34.8414 36 34.3514 36C33.9914 36 33.6414 35.8899 33.3414 35.6699C32.6314 35.1499 32.5114 34.1899 33.0714 33.5299C33.3914 33.1499 33.8714 32.95 34.3614 32.95ZM34.3614 30.95C33.2614 30.95 32.2414 31.42 31.5514 32.24C30.9314 32.97 30.6414 33.93 30.7514 34.88C30.8614 35.83 31.3814 36.71 32.1714 37.29C32.8114 37.76 33.5714 38 34.3714 38C35.4714 38 36.4914 37.5299 37.1814 36.7099C37.8014 35.9799 38.0914 35.01 37.9814 34.07C37.8714 33.12 37.3514 32.24 36.5614 31.66C35.9214 31.19 35.1614 30.95 34.3614 30.95Z" fill="#0274D1"/>
<path d="M7.16992 7.05005L33.1399 33.25" stroke="#0274D1" stroke-width="2" stroke-miterlimit="10"/>
<path d="M5.64092 32.95C6.12092 32.95 6.61092 33.1499 6.93092 33.5299C7.49092 34.1899 7.37092 35.1499 6.66092 35.6699C6.36092 35.8899 6.00092 36 5.65092 36C5.17092 36 4.68092 35.7999 4.36092 35.4199C3.80092 34.7599 3.92092 33.7999 4.63092 33.2799C4.93092 33.0599 5.29092 32.95 5.64092 32.95ZM5.64092 30.95C4.84092 30.95 4.08092 31.2 3.44092 31.66C2.65092 32.24 2.13092 33.12 2.02092 34.07C1.91092 35.01 2.20092 35.9699 2.82092 36.7099C3.51092 37.5299 4.54092 38 5.63092 38C6.43092 38 7.19092 37.75 7.83092 37.29C8.62092 36.71 9.14092 35.83 9.25092 34.88C9.36092 33.94 9.07092 32.98 8.45092 32.24C7.76092 31.42 6.73092 30.95 5.64092 30.95Z" fill="#0274D1"/>
<path d="M34.3616 4C34.8416 4 35.3316 4.2 35.6516 4.58C36.2116 5.24 36.0916 6.2 35.3816 6.72C35.0816 6.94 34.7216 7.05 34.3716 7.05C33.8916 7.05 33.4016 6.85 33.0816 6.47C32.5216 5.81 32.6416 4.85 33.3516 4.33C33.6516 4.11 34.0116 4 34.3616 4ZM34.3616 2C33.5616 2 32.8016 2.25 32.1616 2.71C31.3716 3.29 30.8516 4.17 30.7416 5.12C30.6316 6.06 30.9216 7.02 31.5416 7.76C32.2316 8.58 33.2616 9.05 34.3516 9.05C35.1516 9.05 35.9116 8.8 36.5516 8.34C37.3416 7.76 37.8616 6.88 37.9716 5.93C38.0816 4.99 37.7916 4.03 37.1716 3.29C36.4816 2.47 35.4516 2 34.3616 2Z" fill="#0274D1"/>
<path d="M7.17188 32.95L33.1419 6.75" stroke="#0274D1" stroke-width="2" stroke-miterlimit="10"/>
<path d="M20 34C12.28 34 6 27.72 6 20C6 12.28 12.28 6 20 6C27.72 6 34 12.28 34 20C34 27.72 27.72 34 20 34Z" fill="#C9FFFE"/>
<path d="M20 7C27.18 7 33 12.82 33 20C33 27.18 27.18 33 20 33C12.82 33 7 27.18 7 20C7 12.82 12.82 7 20 7ZM20 5C11.73 5 5 11.73 5 20C5 28.27 11.73 35 20 35C28.27 35 35 28.27 35 20C35 11.73 28.27 5 20 5Z" fill="#0274D1"/>
<path d="M20.0029 28.0298C19.7029 28.0298 19.4629 27.7898 19.4629 27.4898C19.4629 27.1898 19.7029 26.9498 20.0029 26.9498C21.7129 26.9498 24.3329 24.2698 25.5529 23.0498C25.7629 22.8398 26.1129 22.8398 26.3229 23.0498C26.5329 23.2598 26.5329 23.6098 26.3229 23.8198C24.9029 25.2498 22.0129 28.0398 20.0029 28.0398V28.0298Z" fill="#0274D1" stroke="#0274D1" stroke-width="0.75" stroke-miterlimit="10"/>
<path d="M26.962 21.0699C26.662 21.0699 26.422 20.8299 26.422 20.5299V18.4199C26.422 14.8799 23.542 11.9999 20.002 11.9999C16.462 11.9999 13.582 14.8799 13.582 18.4199C13.582 18.7199 13.342 18.9599 13.042 18.9599C12.742 18.9599 12.502 18.7199 12.502 18.4199C12.502 14.2799 15.872 10.9099 20.012 10.9099C24.152 10.9099 27.522 14.2799 27.522 18.4199V20.5299C27.522 20.8299 27.282 21.0699 26.982 21.0699H26.962Z" fill="#0274D1" stroke="#0274D1" stroke-width="0.75" stroke-miterlimit="10"/>
<path d="M20.4108 28.54H19.5908C19.0208 28.54 18.5508 28.07 18.5508 27.5C18.5508 26.93 19.0208 26.46 19.5908 26.46H20.4108C20.9808 26.46 21.4508 26.93 21.4508 27.5C21.4508 28.07 20.9808 28.54 20.4108 28.54Z" fill="#0274D1" stroke="#0274D1" stroke-width="0.75" stroke-miterlimit="10"/>
<path d="M20.4117 29.0899H19.5917C18.7217 29.0899 18.0117 28.3799 18.0117 27.5099C18.0117 26.6399 18.7217 25.9299 19.5917 25.9299H20.4117C21.2817 25.9299 21.9917 26.6399 21.9917 27.5099C21.9917 28.3799 21.2817 29.0899 20.4117 29.0899ZM19.5917 27.0099C19.3217 27.0099 19.0917 27.2299 19.0917 27.5099C19.0917 27.7899 19.3117 28.0099 19.5917 28.0099H20.4117C20.6817 28.0099 20.9117 27.7899 20.9117 27.5099C20.9117 27.2299 20.6917 27.0099 20.4117 27.0099H19.5917Z" fill="#0274D1" stroke="#0274D1" stroke-width="0.75" stroke-miterlimit="10"/>
<path d="M13.9506 22.36H12.3006C11.5206 22.36 10.8906 21.73 10.8906 20.95V19.39C10.8906 18.61 11.5206 17.98 12.3006 17.98H13.9506V22.36Z" fill="#0274D1" stroke="#0274D1" stroke-width="0.75" stroke-miterlimit="10"/>
<path d="M13.9516 22.8999H12.3016C11.2316 22.8999 10.3516 22.0299 10.3516 20.9499V19.3899C10.3516 18.3199 11.2216 17.4399 12.3016 17.4399H13.9516C14.2516 17.4399 14.4916 17.6799 14.4916 17.9799V22.3599C14.4916 22.6599 14.2516 22.8999 13.9516 22.8999ZM12.3016 18.5299C11.8216 18.5299 11.4416 18.9199 11.4416 19.3899V20.9499C11.4416 21.4299 11.8316 21.8099 12.3016 21.8099H13.4116V18.5199H12.3016V18.5299Z" fill="#0274D1" stroke="#0274D1" stroke-width="0.75" stroke-miterlimit="10"/>
<path d="M14.2416 23.07C13.6116 23.07 13.1016 22.56 13.1016 21.93V18.42C13.1016 17.79 13.6116 17.28 14.2416 17.28C14.8716 17.28 15.3816 17.79 15.3816 18.42V21.93C15.3816 22.56 14.8716 23.07 14.2416 23.07Z" fill="#0274D1" stroke="#0274D1" stroke-width="0.75" stroke-miterlimit="10"/>
<path d="M14.2425 23.61C13.3125 23.61 12.5625 22.86 12.5625 21.93V18.42C12.5625 17.49 13.3125 16.74 14.2425 16.74C15.1725 16.74 15.9225 17.49 15.9225 18.42V21.93C15.9225 22.86 15.1725 23.61 14.2425 23.61ZM14.2425 17.82C13.9125 17.82 13.6525 18.09 13.6525 18.41V21.92C13.6525 22.25 13.9225 22.51 14.2425 22.51C14.5625 22.51 14.8325 22.24 14.8325 21.92V18.41C14.8325 18.08 14.5625 17.82 14.2425 17.82Z" fill="#0274D1" stroke="#0274D1" stroke-width="0.75" stroke-miterlimit="10"/>
<path d="M26.0508 22.36H27.7008C28.4808 22.36 29.1108 21.73 29.1108 20.95V19.39C29.1108 18.61 28.4808 17.98 27.7008 17.98H26.0508V22.36Z" fill="#0274D1" stroke="#0274D1" stroke-width="0.75" stroke-miterlimit="10"/>
<path d="M27.7017 22.8999H26.0517C25.7517 22.8999 25.5117 22.6599 25.5117 22.3599V17.9799C25.5117 17.6799 25.7517 17.4399 26.0517 17.4399H27.7017C28.7717 17.4399 29.6517 18.3099 29.6517 19.3899V20.9499C29.6517 22.0199 28.7817 22.8999 27.7017 22.8999ZM26.6017 21.8199H27.7117C28.1917 21.8199 28.5717 21.4299 28.5717 20.9599V19.3999C28.5717 18.9199 28.1817 18.5399 27.7117 18.5399H26.6017V21.8299V21.8199Z" fill="#0274D1" stroke="#0274D1" stroke-width="0.75" stroke-miterlimit="10"/>
<path d="M25.7611 23.07C26.3911 23.07 26.9011 22.56 26.9011 21.93V18.42C26.9011 17.79 26.3911 17.28 25.7611 17.28C25.1311 17.28 24.6211 17.79 24.6211 18.42V21.93C24.6211 22.56 25.1311 23.07 25.7611 23.07Z" fill="#0274D1" stroke="#0274D1" stroke-width="0.75" stroke-miterlimit="10"/>
<path d="M25.762 23.61C24.832 23.61 24.082 22.86 24.082 21.93V18.42C24.082 17.49 24.832 16.74 25.762 16.74C26.692 16.74 27.442 17.49 27.442 18.42V21.93C27.442 22.86 26.692 23.61 25.762 23.61ZM25.762 17.82C25.432 17.82 25.172 18.09 25.172 18.41V21.92C25.172 22.25 25.442 22.51 25.762 22.51C26.082 22.51 26.352 22.24 26.352 21.92V18.41C26.352 18.08 26.082 17.82 25.762 17.82Z" fill="#0274D1" stroke="#0274D1" stroke-width="0.75" stroke-miterlimit="10"/>
</svg>
