<svg width="29" height="29" viewBox="0 0 29 29" fill="none" xmlns="http://www.w3.org/2000/svg">
<path d="M24.89 3.625H4.11153C3.04245 3.625 2.17578 4.49166 2.17578 5.56075V22.7142C2.17578 23.7833 3.04245 24.65 4.11153 24.65H24.89C25.9591 24.65 26.8258 23.7833 26.8258 22.7142V5.56075C26.8258 4.49166 25.9591 3.625 24.89 3.625Z" fill="#000048"/>
<path d="M21.7516 28.2751C25.3552 28.2751 28.2766 25.3538 28.2766 21.7501C28.2766 18.1464 25.3552 15.2251 21.7516 15.2251C18.1479 15.2251 15.2266 18.1464 15.2266 21.7501C15.2266 25.3538 18.1479 28.2751 21.7516 28.2751Z" fill="white"/>
<path d="M21.752 27.1875C24.755 27.1875 27.1895 24.753 27.1895 21.75C27.1895 18.747 24.755 16.3125 21.752 16.3125C18.7489 16.3125 16.3145 18.747 16.3145 21.75C16.3145 24.753 18.7489 27.1875 21.752 27.1875Z" fill="white"/>
<path d="M21.7512 16.6752C24.5497 16.6752 26.8262 18.9517 26.8262 21.7502C26.8262 24.5487 24.5497 26.8252 21.7512 26.8252C18.9527 26.8252 16.6762 24.5487 16.6762 21.7502C16.6762 18.9517 18.9527 16.6752 21.7512 16.6752ZM21.7512 15.9502C18.5467 15.9502 15.9512 18.5457 15.9512 21.7502C15.9512 24.9547 18.5467 27.5502 21.7512 27.5502C24.9557 27.5502 27.5512 24.9547 27.5512 21.7502C27.5512 18.5457 24.9557 15.9502 21.7512 15.9502Z" fill="#000048"/>
<path d="M21.3887 22.8376V18.8501" stroke="#000048" stroke-miterlimit="10"/>
<path d="M25.3757 22.6128H21.1562" stroke="#000048" stroke-miterlimit="10"/>
<path d="M8.13606 9.42529H5.07656C4.67616 9.42529 4.35156 9.74989 4.35156 10.1503C4.35156 10.5507 4.67616 10.8753 5.07656 10.8753H8.13606C8.53647 10.8753 8.86106 10.5507 8.86106 10.1503C8.86106 9.74989 8.53647 9.42529 8.13606 9.42529Z" fill="white"/>
<path d="M13.3997 9.42529H10.3402C9.93983 9.42529 9.61523 9.74989 9.61523 10.1503C9.61523 10.5507 9.93983 10.8753 10.3402 10.8753H13.3997C13.8001 10.8753 14.1247 10.5507 14.1247 10.1503C14.1247 9.74989 13.8001 9.42529 13.3997 9.42529Z" fill="white"/>
<path d="M18.6615 9.42529H15.602C15.2015 9.42529 14.877 9.74989 14.877 10.1503C14.877 10.5507 15.2015 10.8753 15.602 10.8753H18.6615C19.0619 10.8753 19.3865 10.5507 19.3865 10.1503C19.3865 9.74989 19.0619 9.42529 18.6615 9.42529Z" fill="white"/>
<path d="M8.13606 13.0503H5.07656C4.67616 13.0503 4.35156 13.3749 4.35156 13.7753C4.35156 14.1757 4.67616 14.5003 5.07656 14.5003H8.13606C8.53647 14.5003 8.86106 14.1757 8.86106 13.7753C8.86106 13.3749 8.53647 13.0503 8.13606 13.0503Z" fill="white"/>
<path d="M13.3997 13.0503H10.3402C9.93983 13.0503 9.61523 13.3749 9.61523 13.7753C9.61523 14.1757 9.93983 14.5003 10.3402 14.5003H13.3997C13.8001 14.5003 14.1247 14.1757 14.1247 13.7753C14.1247 13.3749 13.8001 13.0503 13.3997 13.0503Z" fill="white"/>
<path d="M18.6615 13.0503H15.602C15.2015 13.0503 14.877 13.3749 14.877 13.7753C14.877 14.1757 15.2015 14.5003 15.602 14.5003H18.6615C19.0619 14.5003 19.3865 14.1757 19.3865 13.7753C19.3865 13.3749 19.0619 13.0503 18.6615 13.0503Z" fill="white"/>
<path d="M8.13606 16.6753H5.07656C4.67616 16.6753 4.35156 16.9999 4.35156 17.4003C4.35156 17.8007 4.67616 18.1253 5.07656 18.1253H8.13606C8.53647 18.1253 8.86106 17.8007 8.86106 17.4003C8.86106 16.9999 8.53647 16.6753 8.13606 16.6753Z" fill="white"/>
<path d="M13.3997 16.6753H10.3402C9.93983 16.6753 9.61523 16.9999 9.61523 17.4003C9.61523 17.8007 9.93983 18.1253 10.3402 18.1253H13.3997C13.8001 18.1253 14.1247 17.8007 14.1247 17.4003C14.1247 16.9999 13.8001 16.6753 13.3997 16.6753Z" fill="white"/>
<path d="M8.13606 20.3003H5.07656C4.67616 20.3003 4.35156 20.6249 4.35156 21.0253C4.35156 21.4257 4.67616 21.7503 5.07656 21.7503H8.13606C8.53647 21.7503 8.86106 21.4257 8.86106 21.0253C8.86106 20.6249 8.53647 20.3003 8.13606 20.3003Z" fill="white"/>
<path d="M13.3997 20.3003H10.3402C9.93983 20.3003 9.61523 20.6249 9.61523 21.0253C9.61523 21.4257 9.93983 21.7503 10.3402 21.7503H13.3997C13.8001 21.7503 14.1247 21.4257 14.1247 21.0253C14.1247 20.6249 13.8001 20.3003 13.3997 20.3003Z" fill="white"/>
<path d="M23.9251 9.42529H20.8656C20.4652 9.42529 20.1406 9.74989 20.1406 10.1503C20.1406 10.5507 20.4652 10.8753 20.8656 10.8753H23.9251C24.3255 10.8753 24.6501 10.5507 24.6501 10.1503C24.6501 9.74989 24.3255 9.42529 23.9251 9.42529Z" fill="white"/>
<path d="M23.9251 13.0503H20.8656C20.4652 13.0503 20.1406 13.3749 20.1406 13.7753C20.1406 14.1757 20.4652 14.5003 20.8656 14.5003H23.9251C24.3255 14.5003 24.6501 14.1757 24.6501 13.7753C24.6501 13.3749 24.3255 13.0503 23.9251 13.0503Z" fill="white"/>
<path d="M7.06914 7.9752C7.86995 7.9752 8.51914 7.32601 8.51914 6.5252C8.51914 5.72438 7.86995 5.0752 7.06914 5.0752C6.26833 5.0752 5.61914 5.72438 5.61914 6.5252C5.61914 7.32601 6.26833 7.9752 7.06914 7.9752Z" fill="white"/>
<path d="M6.34375 2.175V6.525C6.34375 6.92541 6.66834 7.25 7.06875 7.25C7.46916 7.25 7.79375 6.92541 7.79375 6.525V2.175C7.79375 1.77459 7.46916 1.45 7.06875 1.45C6.66834 1.45 6.34375 1.77459 6.34375 2.175Z" fill="#000048"/>
<path d="M22.4754 7.9752C23.2762 7.9752 23.9254 7.32601 23.9254 6.5252C23.9254 5.72438 23.2762 5.0752 22.4754 5.0752C21.6746 5.0752 21.0254 5.72438 21.0254 6.5252C21.0254 7.32601 21.6746 7.9752 22.4754 7.9752Z" fill="white"/>
<path d="M21.75 2.175V6.525C21.75 6.92541 22.0746 7.25 22.475 7.25C22.8754 7.25 23.2 6.92541 23.2 6.525V2.175C23.2 1.77459 22.8754 1.45 22.475 1.45C22.0746 1.45 21.75 1.77459 21.75 2.175Z" fill="#000048"/>
</svg>
