<svg width="40" height="40" viewBox="0 0 40 40" fill="none" xmlns="http://www.w3.org/2000/svg">
<path d="M20.3398 37.5C29.8668 37.5 37.5898 29.7769 37.5898 20.25C37.5898 10.7231 29.8668 3 20.3398 3C10.8129 3 3.08984 10.7231 3.08984 20.25C3.08984 29.7769 10.8129 37.5 20.3398 37.5Z" stroke="#0274D1" stroke-width="2" stroke-miterlimit="10"/>
<path d="M20.3402 33.8499C27.8513 33.8499 33.9402 27.761 33.9402 20.2499C33.9402 12.7388 27.8513 6.6499 20.3402 6.6499C12.8292 6.6499 6.74023 12.7388 6.74023 20.2499C6.74023 27.761 12.8292 33.8499 20.3402 33.8499Z" fill="#C9FFFE"/>
<path d="M26.3595 27.97H25.2595V26.01C25.2595 24.05 24.1795 22.24 22.2295 20.93C21.9795 20.76 21.8295 20.41 21.8295 20C21.8295 19.59 21.9795 19.23 22.2295 19.07C24.1895 17.76 25.2595 15.95 25.2595 13.99V12.03H26.3595C26.6995 12.03 26.9795 11.75 26.9795 11.41C26.9795 11.07 26.6995 10.79 26.3595 10.79H13.6395C13.2995 10.79 13.0195 11.07 13.0195 11.41C13.0195 11.75 13.2995 12.03 13.6395 12.03H14.7395V13.99C14.7395 15.95 15.8195 17.76 17.7695 19.07C18.0195 19.24 18.1695 19.59 18.1695 20C18.1695 20.41 18.0195 20.77 17.7695 20.93C15.8095 22.24 14.7395 24.05 14.7395 26.01V27.97H13.6395C13.2995 27.97 13.0195 28.25 13.0195 28.59C13.0195 28.93 13.2995 29.21 13.6395 29.21H26.3595C26.6995 29.21 26.9795 28.93 26.9795 28.59C26.9795 28.25 26.6995 27.97 26.3595 27.97ZM19.3795 17.63C19.3795 17.29 19.6595 17.01 19.9995 17.01C20.3395 17.01 20.6195 17.29 20.6195 17.63V18.73C20.6195 19.07 20.3395 19.35 19.9995 19.35C19.6595 19.35 19.3795 19.07 19.3795 18.73V17.63ZM19.5595 21.58C19.6795 21.46 19.8395 21.4 19.9995 21.4C20.1595 21.4 20.3195 21.47 20.4395 21.58C20.5595 21.7 20.6195 21.86 20.6195 22.02C20.6195 22.18 20.5495 22.34 20.4395 22.46C20.3195 22.58 20.1595 22.64 19.9995 22.64C19.8395 22.64 19.6795 22.57 19.5595 22.46C19.4395 22.34 19.3795 22.18 19.3795 22.02C19.3795 21.86 19.4495 21.7 19.5595 21.58ZM16.1795 27.98C16.6895 26.06 19.2895 23.98 19.6195 23.72C19.8395 23.54 20.1595 23.54 20.3795 23.72C20.7095 23.97 23.3095 26.06 23.8195 27.98H16.1795Z" fill="#0274D1"/>
</svg>
