<svg width="73" height="74" viewBox="0 0 73 74" fill="none" xmlns="http://www.w3.org/2000/svg">
<g filter="url(#filter0_d_2056_1424)">
<path d="M33.2151 64.0455C49.9025 64.0455 63.4303 50.5177 63.4303 33.8304C63.4303 17.143 49.9025 3.61523 33.2151 3.61523C16.5278 3.61523 3 17.143 3 33.8304C3 50.5177 16.5278 64.0455 33.2151 64.0455Z" fill="#000245"/>
</g>
<path d="M35.8074 54.0736V50.127C35.1301 50.2201 34.4473 50.2667 33.7636 50.2665C32.5431 50.2712 31.3271 50.1173 30.1463 49.8086C28.4214 49.3447 26.8084 48.536 25.4048 47.4313C24.0012 46.3266 22.836 44.9489 21.9797 43.3813C20.7854 41.1949 20.1719 38.7387 20.1978 36.2474C20.1727 33.7865 20.7847 31.361 21.9743 29.2065C23.0663 27.238 24.6419 25.5803 26.5524 24.3897C28.4629 23.1991 30.6453 22.515 32.8936 22.4019C32.3698 21.0849 31.6633 19.2379 31.272 17.958C31.0768 18.0141 30.8747 18.0428 30.6716 18.0432C30.1443 18.0441 29.6338 17.8584 29.2304 17.5189C28.827 17.1794 28.5568 16.7081 28.4677 16.1884C28.3786 15.6687 28.4763 15.1343 28.7435 14.6798C29.0108 14.2253 29.4303 13.8801 29.9277 13.7053C30.4251 13.5305 30.9684 13.5375 31.4612 13.7249C31.954 13.9124 32.3645 14.2682 32.62 14.7294C32.8756 15.1906 32.9596 15.7273 32.8572 16.2446C32.7548 16.7618 32.4727 17.226 32.0607 17.5551C33.0679 19.0023 34.4818 21.449 35.0443 22.436C36.044 22.5179 37.0314 22.7109 37.9883 23.0116C39.0334 21.2026 39.9105 19.7848 40.5202 18.9109C40.0802 18.5628 39.7854 18.0634 39.6931 17.51C39.6008 16.9566 39.7176 16.3887 40.0207 15.9165C40.3239 15.4444 40.7917 15.1019 41.3334 14.9556C41.875 14.8093 42.4517 14.8696 42.9514 15.1248C43.451 15.38 43.8379 15.8119 44.0368 16.3365C44.2358 16.8612 44.2325 17.441 44.0277 17.9633C43.8229 18.4857 43.4312 18.9132 42.9287 19.1628C42.4262 19.4124 41.8488 19.4662 41.3089 19.3138C40.8921 20.6804 40.1297 22.6452 39.7121 23.6981C40.4822 24.0735 41.2146 24.5218 41.8992 25.0368C44.1478 26.6474 45.6759 29.0749 46.1557 31.7988H42.0116H35.9298C34.4748 31.7988 33.291 33.2933 33.291 35.1302V37.1857C33.291 39.0218 34.4748 40.5171 35.9298 40.5171H42.0503V40.5426H46.2339C45.854 42.4683 45.1008 44.301 44.0166 45.9372C43.0041 47.4908 41.8235 48.9281 40.4962 50.2231C39.0603 51.6539 37.4901 52.9433 35.8074 54.0736Z" fill="white"/>
<path d="M42.1402 38.4087C43.0297 38.4087 43.7509 37.2762 43.7509 35.8792C43.7509 34.4821 43.0297 33.3496 42.1402 33.3496C41.2506 33.3496 40.5295 34.4821 40.5295 35.8792C40.5295 37.2762 41.2506 38.4087 42.1402 38.4087Z" fill="white"/>
<defs>
<filter id="filter0_d_2056_1424" x="0" y="0.615234" width="72.4303" height="72.4307" filterUnits="userSpaceOnUse" color-interpolation-filters="sRGB">
<feFlood flood-opacity="0" result="BackgroundImageFix"/>
<feColorMatrix in="SourceAlpha" type="matrix" values="0 0 0 0 0 0 0 0 0 0 0 0 0 0 0 0 0 0 127 0" result="hardAlpha"/>
<feOffset dx="3" dy="3"/>
<feGaussianBlur stdDeviation="3"/>
<feColorMatrix type="matrix" values="0 0 0 0 0.054902 0 0 0 0 0.0941176 0 0 0 0 0.223529 0 0 0 0.325 0"/>
<feBlend mode="normal" in2="BackgroundImageFix" result="effect1_dropShadow_2056_1424"/>
<feBlend mode="normal" in="SourceGraphic" in2="effect1_dropShadow_2056_1424" result="shape"/>
</filter>
</defs>
</svg>
